<svg xmlns="http://www.w3.org/2000/svg" viewBox="0 0 419.09 148.37"><defs><style>.cls-1{fill:white;}.cls-2{fill:white;}</style></defs><g id="Lager_2" data-name="Lager 2"><g id="Layer_1" data-name="Layer 1"><path class="cls-1" d="M61.88,38.89v-.07c0-11.9-4.5-24.41-15.86-31.57C39.3,3.21,30.62.92,19.41.92c-3.37,0-6.9,0-11.08.22C4.41,1.33,1.9,1.63,0,1.7V79.12c2,.18,4.74.27,6.8.37,2.9.1,7.41.2,11.71.2,10.61,0,20-2.41,27.1-7.49C55.9,64.89,61.88,53.67,61.88,38.89Zm-46.77,27c-.09,0-.19,0-.19-.2V14.78c1.57-.08,3.88-.27,6-.27,6.69,0,12.37,1.84,16.39,4.8,5.87,4.45,9.09,11.8,9.09,20.09v.08c0,10-4,17.14-9.78,21.61a25.86,25.86,0,0,1-15.78,5.09A53.37,53.37,0,0,1,15.11,65.91ZM92.89,1.43H72.69v78h39.9V66.67h-25V46.05h21.78V33.52H87.61V14h24.19V1.41Zm41.08,0h-7.69v78h39.54V66.67H141.58c-.42,0-.42-.08-.42-.49V1.41ZM215.55,14H216V1.41H158.45V14h21.31V79.39h14.89V14h20.91Zm4.5,30.17C207.2,74,205.19,78.53,204.89,79.12v.27H220.3v-.27c.17-.76,2.08-5.14,6.16-15.13h25.69c4,10,5.8,14.37,6,15.13v.27h16.67v-.27c-.28-.76-2.11-5.14-14.81-34.82L241.26,0h-2.1Zm19.63-14.57c.77,3,2.26,7.24,8,22.09l.08.2H231v-.2c6-14.85,7.51-19.13,8.41-22.09Zm35.63,10.57c0,25.09,18.64,40.38,42.21,40.38a82.82,82.82,0,0,0,9.39-.55c2.14-.45,4.93-1,6.52-1.47-.13-2.9-.38-10.39-.49-13.19h-.19c-1.64.53-3,.73-4.51,1.08a60,60,0,0,1-9.18.68c-16.63,0-27.59-10.86-27.59-26.93s11.24-26.51,29.14-26.53a44.23,44.23,0,0,1,8,.67,36.34,36.34,0,0,1,4.16.88h.3c.19-5.51.25-9.39.47-13.51a53.63,53.63,0,0,0-6.22-1c-2.08-.18-4.08-.38-7.07-.38C292.33.31,275.31,17,275.31,40.19Zm62.93.49c0,22.21,17.55,39.89,40.26,39.89,23.52,0,40.59-17.8,40.59-40.58v-.08c0-22.34-16.57-39.5-39.56-39.5C355.89.41,338.24,18,338.24,40.68Zm65.45-.32v.12c0,14.84-10,26.49-24.78,26.49s-25.28-11.83-25.28-26.39c0-15,10.68-26.37,25.16-26.37S403.69,25.74,403.69,40.36Z"/><path class="cls-2" d="M11.29,123.66h5.79L24,148H19.38L18,142.77H10.34L8.89,148H4.28Zm.06,15.27H17l-2.73-10.59h-.07Z"/><path class="cls-2" d="M58,148V123.69h4.85l9.57,16.59h.07V123.69h4.38V148H72.4L62.46,130.7h-.07V148Z"/><path class="cls-2" d="M101.12,148.37c-6.64,0-10.21-4.55-10.21-12.51s3.57-12.5,10.21-12.5,10.21,4.55,10.21,12.5S107.76,148.37,101.12,148.37Zm0-21.1c-3.81,0-5.56,2.89-5.56,8.59s1.72,8.6,5.56,8.6,5.56-2.9,5.56-8.6S104.93,127.27,101.12,127.27Z"/><path class="cls-2" d="M125.29,148V123.69H135c5.53,0,7.76,3.2,7.79,7.22a6,6,0,0,1-4.45,6.27L143.69,148h-5.16L134,138.12h-4V148Zm4.65-13.69h3.44c3.64,0,4.75-1.14,4.75-3.43s-1.38-3.44-3.94-3.44h-4.25Z"/><path class="cls-2" d="M158.05,123.69h8.06c6.44,0,10.88,3.58,10.92,12.17S172.55,148,166.11,148h-8.06Zm4.65,20.43h3.1c5.33,0,6.58-3.91,6.58-8.26s-1.25-8.26-6.58-8.26h-3.1Z"/><path class="cls-2" d="M191.46,148V123.69h4.65V148Z"/><path class="cls-2" d="M224.76,130.77a4.55,4.55,0,0,0-4.42-3.5c-3.1,0-5,2.89-5,8.59s1.62,8.6,5.13,8.6c2.09,0,3.37-.75,4.75-3.61l4.31,1.15c-1.44,4.21-4.61,6.37-9.06,6.37-6.2,0-9.78-4.55-9.78-12.51s3.58-12.5,9.78-12.5c4.65,0,7.35,2.09,8.49,6.4Z"/><path class="cls-2" d="M263.76,123.69h9c4.86,0,8,1.62,8.26,6a5.43,5.43,0,0,1-3.71,5.53c3.17,1.28,4.25,2.73,4.25,6.43s-2.66,6.41-8.86,6.41h-9Zm4.65,9.71h4.65c2.23,0,3.34-1.28,3.34-3s-1.11-3-3.34-3h-4.65Zm0,10.85h4.65c2.7,0,3.88-1.21,3.88-3.54s-1.18-3.53-3.88-3.53h-4.65Z"/><path class="cls-2" d="M296.52,148V123.69h9.71c5.53,0,7.75,3.2,7.79,7.22a6,6,0,0,1-4.45,6.27L314.93,148h-5.16l-4.58-9.91h-4V148Zm4.65-13.69h3.44c3.64,0,4.76-1.14,4.76-3.43s-1.39-3.44-3.95-3.44h-4.25Z"/><path class="cls-2" d="M334.11,123.66h5.79L346.81,148H342.2l-1.35-5.26h-7.69L331.71,148H327.1Zm.06,15.27h5.67l-2.73-10.59H337Z"/><path class="cls-2" d="M360.27,148V123.69h4.85l9.57,16.59h.07V123.69h4.38V148h-4.48l-10-17.33h-.06V148Z"/><path class="cls-2" d="M394.78,123.69h8.06c6.44,0,10.89,3.58,10.92,12.17S409.28,148,402.84,148h-8.06Zm4.65,20.43h3.1c5.33,0,6.58-3.91,6.58-8.26s-1.25-8.26-6.58-8.26h-3.1Z"/></g></g></svg>